<?xml version="1.0" encoding="utf-8"?>
<!-- Generator: Adobe Illustrator 19.0.0, SVG Export Plug-In . SVG Version: 6.00 Build 0)  -->
<svg version="1.1" id="Layer_1" xmlns="http://www.w3.org/2000/svg" xmlns:xlink="http://www.w3.org/1999/xlink" x="0px" y="0px"
	 width="151px" height="48px" viewBox="0 0 151 48" enable-background="new 0 0 151 48" xml:space="preserve">
<path id="XMLID_2_" fill-rule="evenodd" clip-rule="evenodd" fill="#FFFFFF" d="M18.711,38.434c0.333,0,0.62-0.117,0.859-0.353
	c0.239-0.235,0.359-0.516,0.359-0.843v-5.642c0-0.164-0.063-0.307-0.187-0.429c-0.125-0.123-0.271-0.184-0.438-0.184H4.748v-2.514
	h14.557c0.167,0,0.313-0.061,0.438-0.184c0.125-0.123,0.187-0.266,0.187-0.429v-5.274c0-0.327-0.12-0.608-0.359-0.843
	c-0.24-0.235-0.526-0.353-0.859-0.353H3.749c-0.292,0-0.568,0.128-0.828,0.383c-0.26,0.255-0.391,0.526-0.391,0.813H0
	c0-0.511,0.099-0.991,0.297-1.441c0.198-0.45,0.469-0.843,0.812-1.181c0.344-0.337,0.739-0.603,1.187-0.797
	c0.448-0.194,0.932-0.291,1.453-0.291h14.963c1.041,0,1.932,0.363,2.671,1.088c0.739,0.726,1.109,1.6,1.109,2.622v5.274
	c0,0.307-0.052,0.578-0.156,0.813c-0.104,0.235-0.224,0.429-0.359,0.582c-0.135,0.153-0.271,0.266-0.406,0.337
	c-0.135,0.071-0.245,0.107-0.328,0.107c0.083,0,0.193,0.041,0.328,0.123c0.135,0.082,0.271,0.204,0.406,0.368
	c0.135,0.163,0.255,0.363,0.359,0.598c0.104,0.235,0.156,0.506,0.156,0.813v5.642c0,1.022-0.37,1.896-1.109,2.621
	c-0.739,0.726-1.629,1.088-2.671,1.088H3.749c-0.521,0-1.005-0.097-1.453-0.291c-0.448-0.194-0.844-0.46-1.187-0.797
	c-0.344-0.337-0.615-0.731-0.812-1.18C0.099,38.229,0,37.749,0,37.238h2.53c0,0.286,0.13,0.557,0.391,0.813
	c0.26,0.256,0.536,0.383,0.828,0.383H18.711L18.711,38.434z M37.912,10.829l9.159-10.691h3.401v21.623h-2.509V2.9L37.912,14.643
	L27.861,2.9v18.86h-2.509V0.138h3.401L37.912,10.829L37.912,10.829z M67.974,4.342h3.396v17.419h-2.509V7.105L56.653,21.761h-3.396
	V4.342h2.509v14.656L67.974,4.342L67.974,4.342z M88.995,4.342h3.274l-7.404,8.559l7.435,8.86h-3.305l-5.783-6.967l-5.752,6.967
	h-3.304l7.405-8.86l-7.405-8.559h3.304l5.752,6.607L88.995,4.342L88.995,4.342z M109.378,4.342c1.04,0,1.923,0.355,2.642,1.066
	c0.724,0.711,1.086,1.567,1.086,2.568v13.785H98.75c-1.02,0-1.892-0.356-2.611-1.066c-0.724-0.711-1.086-1.567-1.086-2.568V11.82
	h15.544V7.976c0-0.32-0.117-0.596-0.352-0.826c-0.234-0.23-0.515-0.345-0.841-0.345h-14.35V4.342H109.378L109.378,4.342z
	 M110.596,19.298v-5.016H97.562v3.844c0,0.32,0.117,0.596,0.352,0.826c0.235,0.23,0.515,0.346,0.842,0.346H110.596L110.596,19.298z
	 M130.668,4.342h3.396v17.419h-2.509V7.105l-12.208,14.656h-3.396V4.342h2.509v14.656L130.668,4.342L130.668,4.342z M150.526,4.342
	v17.419h-2.509V7.976c0-0.32-0.122-0.596-0.367-0.826c-0.245-0.23-0.53-0.345-0.857-0.345h-3.182c-0.326,0-0.586,0.115-0.78,0.345
	c-0.194,0.23-0.332,0.506-0.413,0.826l-3.06,13.785h-2.509l3.06-13.785c0.225-1.001,0.643-1.857,1.254-2.568
	c0.612-0.711,1.428-1.066,2.448-1.066H150.526L150.526,4.342z M39.99,23.164c1.062,0,1.963,0.363,2.697,1.089
	c0.739,0.726,1.109,1.599,1.109,2.621v14.074H29.14c-1.041,0-1.931-0.363-2.665-1.088c-0.739-0.726-1.109-1.6-1.109-2.621v-6.439
	h15.869v-3.925c0-0.327-0.12-0.608-0.359-0.843c-0.24-0.235-0.526-0.352-0.859-0.352H25.365v-2.514H39.99L39.99,23.164z
	 M41.234,38.434v-5.12H27.927v3.925c0,0.327,0.12,0.608,0.359,0.843c0.24,0.235,0.526,0.353,0.859,0.353H41.234L41.234,38.434z
	 M49.263,48v-2.514h12.094c0.328,0,0.614-0.118,0.854-0.353c0.239-0.235,0.359-0.516,0.359-0.843v-3.342H50.481
	c-0.5,0-0.979-0.102-1.437-0.307c-0.458-0.205-0.859-0.475-1.203-0.813c-0.343-0.337-0.62-0.731-0.828-1.18
	c-0.208-0.45-0.312-0.92-0.312-1.41V26.874c0-1.022,0.37-1.896,1.109-2.621c0.734-0.726,1.624-1.089,2.665-1.089h14.656V44.29
	c0,1.022-0.37,1.896-1.104,2.622C63.288,47.637,62.393,48,61.336,48H49.263L49.263,48z M50.507,25.679
	c-0.328,0-0.614,0.118-0.854,0.352c-0.239,0.235-0.359,0.516-0.359,0.843l-0.031,10.364c0,0.327,0.125,0.608,0.375,0.843
	c0.25,0.235,0.541,0.353,0.87,0.353H62.57V25.679H50.507L50.507,25.679z M71.811,23.164h10.85c1.062,0,1.963,0.363,2.697,1.089
	c0.739,0.726,1.109,1.599,1.109,2.621v10.364c0,1.022-0.37,1.896-1.109,2.621c-0.734,0.726-1.635,1.088-2.697,1.088h-10.85
	c-1.041,0-1.931-0.363-2.666-1.088c-0.739-0.726-1.109-1.6-1.109-2.621V26.874c0-1.022,0.369-1.896,1.109-2.621
	C69.88,23.527,70.77,23.164,71.811,23.164L71.811,23.164z M82.687,25.679H71.816c-0.333,0-0.619,0.118-0.859,0.352
	c-0.239,0.235-0.359,0.516-0.359,0.843v10.364c0,0.327,0.12,0.608,0.359,0.843c0.24,0.235,0.526,0.353,0.859,0.353h10.871
	c0.333,0,0.619-0.117,0.859-0.353c0.24-0.235,0.359-0.516,0.359-0.843V26.874c0-0.327-0.12-0.608-0.359-0.843
	C83.307,25.796,83.021,25.679,82.687,25.679L82.687,25.679z M104.054,23.164c1.041,0,1.932,0.363,2.671,1.089
	c0.739,0.726,1.109,1.599,1.109,2.621v10.364c0,1.022-0.37,1.896-1.109,2.621c-0.739,0.726-1.63,1.088-2.671,1.088H91.934V48h-2.561
	V23.164H104.054L104.054,23.164z M105.273,37.238V26.874c0-0.327-0.12-0.608-0.359-0.843c-0.24-0.235-0.526-0.352-0.859-0.352
	H93.183c-0.333,0-0.625,0.118-0.874,0.352c-0.25,0.235-0.375,0.516-0.375,0.843v10.364c0,0.327,0.125,0.608,0.375,0.843
	c0.25,0.235,0.541,0.353,0.874,0.353h10.871c0.333,0,0.619-0.117,0.859-0.353C105.153,37.846,105.273,37.565,105.273,37.238
	L105.273,37.238z M125.734,23.164h3.468v17.784h-2.562V25.985l-12.464,14.963h-3.467V23.164h2.561v14.963L125.734,23.164
	L125.734,23.164z M147.975,30.493v-7.328h2.562v17.784h-2.562v-7.941h-13.37v7.941h-2.561V23.164h2.561v7.328H147.975z"/>
</svg>
