<?xml version="1.0" encoding="utf-8"?>
<!-- Generator: Adobe Illustrator 19.0.0, SVG Export Plug-In . SVG Version: 6.00 Build 0)  -->
<svg version="1.1" id="Layer_1" xmlns="http://www.w3.org/2000/svg" xmlns:xlink="http://www.w3.org/1999/xlink" x="0px" y="0px"
	 width="106px" height="75px" viewBox="0 0 106 75" enable-background="new 0 0 106 75" xml:space="preserve">
<path id="XMLID_2_" fill="none" stroke="#FFFFFF" stroke-width="3" stroke-miterlimit="10" d="M98.743,8.714
	c-3.554-4.248-10.116-5.98-22.648-5.98H30.603C17.784,2.733,11.111,4.578,7.57,9.1c-3.452,4.409-3.452,10.906-3.452,19.898v17.138
	c0,17.42,4.096,26.264,26.485,26.264h45.491c10.868,0,16.89-1.529,20.786-5.278c3.995-3.844,5.7-10.121,5.7-20.987V28.998
	C102.58,19.515,102.313,12.98,98.743,8.714z M67.331,39.933L46.674,50.787c-0.462,0.243-0.967,0.363-1.471,0.363
	c-0.571,0-1.141-0.155-1.646-0.462c-0.95-0.579-1.531-1.615-1.531-2.732V26.318c0-1.115,0.579-2.15,1.527-2.729
	c0.949-0.579,2.129-0.619,3.113-0.105l20.657,10.784c1.051,0.549,1.711,1.639,1.713,2.83C69.038,38.289,68.381,39.381,67.331,39.933
	z"/>
</svg>
