<?xml version="1.0" encoding="utf-8"?>
<!-- Generator: Adobe Illustrator 19.0.0, SVG Export Plug-In . SVG Version: 6.00 Build 0)  -->
<svg version="1.1" id="Layer_1" xmlns="http://www.w3.org/2000/svg" xmlns:xlink="http://www.w3.org/1999/xlink" x="0px" y="0px"
	 width="300px" height="300px" viewBox="0 0 300 300" enable-background="new 0 0 300 300" xml:space="preserve">
<path id="XMLID_3_" display="none" fill-rule="evenodd" clip-rule="evenodd" fill="#666666" d="M226.126,0.79l-38.379-0.058
	c-43.11,0-70.976,28.909-70.976,73.647v33.968h-38.59c-3.317,0-6.023,2.717-6.023,6.093v49.208c0,3.363,2.707,6.098,6.023,6.098
	h38.59v124.155c0,3.358,2.703,6.098,6.041,6.098h50.321c3.338,0,6.041-2.74,6.041-6.098V169.747h45.115c3.329,0,6.029-2.734,6.029-8
	l0.023-49.208c0,0.292-0.645-1.26-1.775-2.415c-1.124-1.141-2.657-1.776-4.265-1.776h-45.126V79.557
	c0-13.837,3.262-20.864,21.076-20.864l25.857-0.016c3.336,0,6.025-2.734,6.025-6.092V6.905
	C232.133,3.525,229.444,0.808,226.126,0.79z"/>
<path id="XMLID_9_" fill-rule="evenodd" clip-rule="evenodd" fill="#666666" d="M217.209,0H82.791C37.133,0,0,37.094,0,82.692
	v134.259c0,45.597,37.133,82.692,82.791,82.692h134.417c45.651,0,82.791-37.1,82.791-82.692V82.692C300,37.094,262.86,0,217.209,0
	L217.209,0z M149.992,72.618c42.627,0,77.31,34.636,77.31,77.202c0,42.58-34.683,77.212-77.31,77.212
	c-42.621,0-77.299-34.632-77.299-77.212C72.693,107.254,107.371,72.618,149.992,72.618L149.992,72.618z M149.992,200.442
	c-27.936,0-50.682-22.708-50.682-50.622c0-27.909,22.731-50.617,50.682-50.617c27.958,0,50.693,22.708,50.693,50.617
	C200.685,177.733,177.945,200.442,149.992,200.442L149.992,200.442z M230.543,50.073c5.146,0,10.182,2.067,13.803,5.705
	c3.642,3.616,5.717,8.652,5.717,13.796c0,5.111-2.075,10.15-5.717,13.783c-3.637,3.616-8.656,5.704-13.803,5.704
	c-5.126,0-10.167-2.088-13.785-5.704c-3.639-3.632-5.735-8.661-5.735-13.783c0-5.144,2.086-10.18,5.735-13.796
	C220.38,52.14,225.416,50.073,230.543,50.073L230.543,50.073z M273.383,216.952c0,30.942-25.197,56.108-56.175,56.108H82.791
	c-30.978,0-56.175-25.166-56.175-56.108V82.692c0-30.942,25.196-56.108,56.175-56.108h134.417c30.977,0,56.175,25.166,56.175,56.108
	V216.952z"/>
<path id="XMLID_13_" display="none" fill-rule="evenodd" clip-rule="evenodd" fill="#666666" d="M135.924,211.513
	c-24.11-2.415-45.869-8.124-64.506-22.119c-2.307-1.759-4.695-3.436-6.794-5.381c-8.15-7.53-8.969-16.147-2.538-25.039
	c5.529-7.602,14.794-9.646,24.419-5.276c1.864,0.852,3.642,1.908,5.343,3.047c34.717,22.923,82.386,23.566,117.243,1.026
	c3.453-2.547,7.128-4.626,11.412-5.684c8.321-2.049,16.073,0.889,20.531,7.89c5.106,7.982,5.024,15.785-1.245,21.986
	c-9.646,9.504-21.225,16.389-34.106,21.199c-12.174,4.53-25.494,6.809-38.709,8.337c2.007,2.086,2.932,3.103,4.188,4.297
	c17.921,17.331,35.924,34.559,53.78,51.932c6.078,5.925,7.35,13.256,4.007,20.14c-3.677,7.518-11.87,12.477-19.906,11.943
	c-5.095-0.341-9.068-2.772-12.608-6.201c-13.528-13.092-27.294-25.927-40.551-39.256c-3.851-3.89-5.714-3.158-9.102,0.214
	c-13.611,13.465-27.443,26.734-41.351,39.914c-6.241,5.925-13.674,6.991-20.911,3.613c-7.705-3.583-12.61-11.147-12.223-18.734
	c0.25-5.145,2.87-9.077,6.547-12.595c17.734-17.024,35.412-34.101,53.115-51.15C133.138,214.483,134.217,213.276,135.924,211.513
	L135.924,211.513z M150.629,152.213c43.482,0.137,79.025-33.397,79.243-74.76c0.205-42.35-34.744-76.616-78.301-76.721
	c-43.464-0.126-78.784,33.648-79.024,75.571C72.297,117.764,107.595,152.078,150.629,152.213L150.629,152.213z M189.752,76.409
	c0.059,20.566-16.932,37.069-38.295,37.14c-21.416,0.08-38.608-16.201-38.767-36.696c-0.157-20.784,17.024-37.467,38.577-37.43
	C172.629,39.438,189.669,55.824,189.752,76.409z"/>
<path id="XMLID_15_" display="none" fill-rule="evenodd" clip-rule="evenodd" fill="#666666" d="M258.234,177.218
	c9.94,10.105,20.433,19.604,29.354,30.73c3.936,4.936,7.669,10.039,10.517,15.775c4.045,8.152,0.379,17.123-6.645,17.612
	l-43.654-0.022c-11.265,0.975-20.249-3.742-27.802-11.754c-6.043-6.416-11.645-13.235-17.453-19.858
	c-2.383-2.707-4.881-5.255-7.861-7.27c-5.956-4.024-11.131-2.792-14.542,3.677c-3.461,6.583-4.255,13.868-4.594,21.205
	c-0.469,10.695-3.573,13.509-13.902,14c-22.073,1.083-43.017-2.393-62.475-13.981c-17.151-10.217-30.456-24.639-42.037-40.964
	c-22.547-31.797-39.811-66.73-55.328-102.64c-3.493-8.089-0.936-12.438,7.644-12.592c14.242-0.282,28.482-0.262,42.742-0.02
	c5.789,0.093,9.621,3.543,11.858,9.239c7.709,19.723,17.137,38.483,28.975,55.876c3.147,4.63,6.363,9.26,10.94,12.522
	c5.064,3.609,8.915,2.414,11.299-3.457c1.512-3.728,2.173-7.73,2.518-11.719c1.123-13.719,1.27-27.409-0.705-41.078
	c-1.217-8.53-5.832-14.052-14.008-15.667c-4.179-0.82-3.558-2.435-1.533-4.922c3.507-4.271,6.809-6.932,13.39-6.932h49.342
	c7.767,1.594,9.497,5.23,10.561,13.362l0.044,57.045c-0.089,3.153,1.509,12.496,6.961,14.583c4.358,1.481,7.237-2.148,9.852-5.029
	c11.812-13.048,20.244-28.476,27.777-44.44c3.344-7.029,6.222-14.32,9.005-21.605c2.07-5.409,5.305-8.065,11.153-7.952l47.493,0.047
	c1.405,0,2.834,0.018,4.194,0.265c8.004,1.419,10.196,5.005,7.727,13.137c-3.896,12.759-11.472,23.393-18.88,34.077
	c-7.922,11.402-16.394,22.42-24.245,33.895C248.698,162.841,249.269,168.122,258.234,177.218z"/>
<path id="XMLID_18_" display="none" fill-rule="evenodd" clip-rule="evenodd" fill="#666666" d="M37.914,256.564
	c37.16,4.269,74.771,4.293,112.222,4.269c37.46,0.024,75.072,0,112.22-4.269c15.693-1.804,28.73-13.922,32.407-30.338
	c5.224-23.369,5.238-48.9,5.238-72.969c0-24.072,0.048-49.589-5.182-72.961c-3.667-16.427-16.703-28.532-32.4-30.334
	c-37.163-4.279-74.779-4.299-112.22-4.279c-37.451-0.014-75.083,0-112.241,4.279C22.278,51.763,9.243,63.869,5.585,80.296
	c-5.225,23.372-5.287,48.889-5.287,72.961c0,24.069,0,49.6,5.225,72.975C9.181,242.642,22.216,254.761,37.914,256.564
	L37.914,256.564z M111.477,99.098c31.754,17.071,63.31,34.01,95.277,51.189c-31.877,17.02-63.432,33.885-95.277,50.893V99.098z"/>
</svg>
