<?xml version="1.0" encoding="utf-8"?>
<!-- Generator: Adobe Illustrator 19.0.0, SVG Export Plug-In . SVG Version: 6.00 Build 0)  -->
<svg version="1.1" id="Layer_1" xmlns="http://www.w3.org/2000/svg" xmlns:xlink="http://www.w3.org/1999/xlink" x="0px" y="0px"
	 width="318px" height="129px" viewBox="0 0 318 129" enable-background="new 0 0 318 129" xml:space="preserve">
<path id="XMLID_53_" fill-rule="evenodd" clip-rule="evenodd" fill="none" stroke="#FFFFFF" stroke-width="3" stroke-miterlimit="10" d="
	M17.686,1.709h281.962c8.111,0,14.685,6.575,14.685,14.686v96.925c0,8.111-6.575,14.686-14.685,14.686H17.686
	C9.575,128.005,3,121.43,3,113.32V16.395C3,8.285,9.575,1.709,17.686,1.709z"/>
<path id="XMLID_51_" fill-rule="evenodd" clip-rule="evenodd" fill="#FFFFFF" d="M38.6,56.193
	c-6.494,11.2-2.365,28.197,4.815,38.504c3.586,5.153,7.214,9.779,12.186,9.779c0.094,0,0.187-0.002,0.282-0.006
	c2.336-0.091,4.024-0.806,5.657-1.496c1.83-0.776,3.725-1.578,6.699-1.578c2.827,0,4.63,0.776,6.375,1.526
	c1.72,0.739,3.491,1.505,6.108,1.455c5.6-0.103,9.038-5.095,12.071-9.498c3.165-4.598,4.753-9.061,5.288-10.765l0.022-0.07
	c0.102-0.303-0.042-0.633-0.334-0.768c-0.008-0.003-0.038-0.015-0.046-0.018c-0.985-0.4-9.637-4.214-9.726-14.61
	c-0.085-8.445,6.487-12.915,7.806-13.727l0.062-0.038c0.142-0.092,0.242-0.236,0.276-0.402c0.033-0.164-0.002-0.337-0.098-0.477
	c-4.537-6.599-11.491-7.593-14.29-7.712c-0.407-0.04-0.827-0.062-1.246-0.062c-3.289,0-6.439,1.234-8.97,2.226
	c-1.748,0.686-3.255,1.276-4.297,1.276c-1.17,0-2.687-0.598-4.444-1.291c-2.35-0.926-5.014-1.976-7.833-1.976
	c-0.067,0-0.132,0-0.198,0.002C48.211,46.56,42.014,50.289,38.6,56.193z"/>
<path id="XMLID_49_" fill-rule="evenodd" clip-rule="evenodd" fill="#FFFFFF" d="M81.759,28.127
	c-3.969,0.161-8.732,2.589-11.578,5.903c-2.42,2.786-4.783,7.43-4.16,12.111c0.038,0.294,0.278,0.52,0.575,0.541
	c0.268,0.022,0.542,0.032,0.814,0.032c3.882,0,8.07-2.132,10.928-5.571c3.011-3.628,4.534-8.287,4.073-12.458
	c-0.033-0.311-0.299-0.547-0.605-0.558H81.759z"/>
<path id="XMLID_35_" fill-rule="evenodd" clip-rule="evenodd" fill="#FFFFFF" d="M124.245,48.552h-2.455
	c0,3.393,0.933,6.736,7.978,6.736c3.629,0,7.739-1.379,7.739-5.703c0-2.784-1.815-4.588-4.217-5.066
	c1.253-0.238,3.416-1.592,3.416-4.165c0-3.236-2.883-5.33-6.885-5.33c-6.324,0-7.686,4.084-7.686,6.206h2.455
	c0-3.049,2.669-3.899,4.936-3.899c1.735,0,4.484,0.399,4.484,3.316c0,2.043-2.428,2.997-4.643,2.997h-1.469v2.122h2.03
	c2.642,0,4.883,0.955,4.883,3.766c0,2.759-3.042,3.448-5.097,3.448C126.566,52.98,124.245,52.052,124.245,48.552L124.245,48.552z
	 M142.549,45.023c0.134-1.061,0.508-2.705,3.204-2.705c2.241,0,3.282,0.715,3.282,2.254c0,1.46-0.267,1.751-3.977,2.043
	c-4.963,0.37-5.39,2.837-5.39,4.508c0,2.44,1.815,4.06,4.403,4.06c2.748,0,4.163-1.3,5.096-2.282c0.107,1.062,0.401,2.15,2.509,2.15
	c0.535,0,0.881-0.16,1.282-0.266V53.06c-0.267,0.053-0.56,0.107-0.774,0.107c-0.481,0-0.774-0.292-0.774-0.875v-8.01
	c0-3.608-4.109-3.926-5.23-3.926c-3.496,0-5.818,1.301-5.818,4.669H142.549L142.549,45.023z M149.035,49.93
	c0,1.884-2.135,3.289-4.35,3.289c-1.762,0-2.589-0.929-2.589-2.467c0-1.777,1.868-2.096,3.042-2.254
	c2.936-0.372,3.522-0.584,3.897-0.875V49.93L149.035,49.93z M155.412,40.753v14.031h2.375V42.717h6.806v-1.963H155.412
	L155.412,40.753z M172.838,42.477c3.416,0,3.656,3.606,3.656,5.915c0,3.739-2.241,4.747-3.735,4.747c-2.588,0-3.79-2.36-3.79-5.41
	C168.969,45.899,169.156,42.477,172.838,42.477L172.838,42.477z M166.594,60.327h2.375v-7.188c0.667,1.142,1.922,2.043,3.815,2.043
	c4.805,0,6.139-4.483,6.139-7.825c0-3.978-2.108-7.003-5.844-7.003c-2.455,0-3.496,1.247-4.27,2.388v-1.99h-2.214V60.327
	L166.594,60.327z M180.177,40.753l5.229,14.403c-1.146,2.89-1.306,3.236-2.508,3.236c-0.64,0-1.147-0.133-1.441-0.24v2.148
	c0.374,0.106,0.667,0.212,1.015,0.212c2.722,0,3.336-0.769,4.377-3.182c1.947-4.51,4.562-11.989,6.217-16.577h-2.616l-3.761,11.432
	h-0.054l-3.764-11.432H180.177L180.177,40.753z M196.802,44.758c0.319-1.618,1.254-2.36,3.255-2.36c1.334,0,2.883,0.503,2.883,2.042
	c0,1.407-0.668,2.176-2.722,2.176h-1.282v1.857h1.415c1.735,0,3.042,0.689,3.042,2.334c0,1.644-1.548,2.333-3.283,2.333
	c-2.455,0-3.469-0.795-3.683-2.759h-2.321c0.267,2.494,1.44,4.802,6.112,4.802c3.095,0,5.63-1.46,5.63-4.06
	c0-2.36-1.655-3.236-2.908-3.659c1.173-0.319,2.455-1.274,2.455-3.103c0-2.229-2.136-4.006-5.338-4.006
	c-3.949,0-5.311,2.599-5.524,4.403H196.802L196.802,44.758z M210.919,40.753h-2.375v14.031h2.482l6.912-10.503h0.053v10.503h2.375
	V40.753h-2.482l-6.912,10.503h-0.054V40.753L210.919,40.753z M222.261,40.753v1.963h4.642v12.068h2.375V42.717h4.644v-1.963H222.261
	L222.261,40.753z M238.378,40.753h-2.375v14.031h5.791c3.816,0,5.311-1.884,5.311-4.058c0-2.467-1.762-4.324-5.365-4.324h-3.362
	V40.753L238.378,40.753z M238.378,48.366h3.389c1.922,0,2.909,0.769,2.909,2.227c0,1.565-0.749,2.228-2.909,2.228h-3.389V48.366
	L238.378,48.366z M268.531,45.474c-0.186-2.441-1.575-5.12-5.283-5.12c-4.644,0-6.752,3.475-6.752,7.799
	c0,4.058,2.349,7.029,6.297,7.029c4.136,0,5.498-3.131,5.738-5.358h-2.295c-0.399,2.147-1.761,3.315-3.363,3.315
	c-3.255,0-3.841-2.97-3.841-5.384c0-2.493,0.934-5.278,3.869-5.278c2.002,0,3.043,1.115,3.335,2.997H268.531z"/>
<path id="XMLID_26_" fill-rule="evenodd" clip-rule="evenodd" fill="#FFFFFF" d="M128.705,73.382h-7.154v27.133h7.154V73.382
	L128.705,73.382z M128.705,63.599h-7.154v6.606h7.154V63.599L128.705,63.599z M151.233,70.205h11.111v-6.304h-29.886v6.304h11.112
	v30.31h7.662V70.205L151.233,70.205z M164.577,73.382v17.853c0,6.91,3.855,9.986,9.235,9.986c3.805,0,6.696-1.664,8.321-4.539h0.102
	v3.834h6.85V73.382h-7.154v15.634c0,4.842-3.196,6.204-5.531,6.204c-2.232,0-4.667-0.857-4.667-4.993V73.382H164.577L164.577,73.382
	z M195.173,73.382v27.133h7.154V84.983c0-4.136,2.435-6.305,5.632-6.305c4.567,0,4.667,3.38,4.667,5.347v16.491h7.155V81.754
	c0-5.95-4.109-9.077-9.437-9.077c-5.176,0-7.256,3.076-8.221,4.691h-0.1v-3.985H195.173L195.173,73.382z M242.819,92.548
	c-0.558,1.917-2.589,2.975-4.617,2.975c-5.786,0-6.242-4.59-6.242-6.657h18.52v-2.673c0-9.33-5.123-13.515-12.786-13.515
	c-11.924,0-13.09,10.439-13.09,13.718c0,11.145,5.936,14.826,13.599,14.826c4.667,0,10.097-2.167,11.974-8.674H242.819
	L242.819,92.548z M231.959,84.226c0.406-3.53,2.232-5.699,5.632-5.699c2.284,0,5.126,1.363,5.532,5.699H231.959L231.959,84.226z
	 M278.234,81.655c-0.558-7.666-6.901-8.978-12.228-8.978c-8.525,0-11.01,5.094-11.01,9.077c0,10.137,16.896,6.707,16.896,11.246
	c0,1.009-0.863,2.824-4.566,2.824c-4.517,0-5.938-1.714-5.938-3.983h-7.357c0,7.212,6.901,9.38,13.091,9.38
	c4.261,0,11.924-1.412,11.924-9.33c0-9.986-17.048-6.858-17.048-11.146c0-1.159,0.507-2.673,4.414-2.673
	c3.908,0,4.516,1.866,4.82,3.582H278.234z"/>
</svg>
